<?xml version="1.0" standalone="no"?>
<!DOCTYPE svg PUBLIC "-//W3C//DTD SVG 20010904//EN"
 "http://www.w3.org/TR/2001/REC-SVG-20010904/DTD/svg10.dtd">
<svg version="1.0" xmlns="http://www.w3.org/2000/svg"
 width="118.000000pt" height="108.000000pt" viewBox="0 0 118.000000 108.000000"
 preserveAspectRatio="xMidYMid meet">

<g transform="translate(0.000000,108.000000) scale(0.100000,-0.100000)"
fill="#000000" stroke="none">
<path d="M498 897 c-231 -97 -310 -362 -168 -568 169 -246 552 -189 650 97 63
181 -24 381 -200 463 -80 37 -203 41 -282 8z m248 -131 c3 -8 -6 -55 -20 -105
-14 -49 -26 -94 -26 -100 0 -5 24 -11 52 -13 87 -5 77 -24 -73 -132 -73 -53
-141 -96 -151 -96 -23 0 -23 17 5 115 21 75 25 81 57 92 33 11 29 12 -48 12
-88 1 -109 13 -81 47 17 21 259 194 271 194 5 0 11 -7 14 -14z"/>
</g>
</svg>
